<svg xmlns="http://www.w3.org/2000/svg" viewBox="0 0 200 80">
  <defs>
    <linearGradient id="airtelGradient" x1="0%" y1="0%" x2="100%" y2="100%">
      <stop offset="0%" style="stop-color:#ff253a;stop-opacity:1" />
      <stop offset="100%" style="stop-color:#d90429;stop-opacity:1" />
    </linearGradient>
  </defs>
  <path d="M52 20c18-6 36 5 34 20-2 12-14 20-26 24-5 2-13 3-18 0-6-4-4-11 1-15 5-4 11-5 16-7 3-1 8-4 6-7-2-4-9-3-13-2-6 1-12 4-18 7-9 5-19 11-30 12 9-10 18-19 29-27 6-5 13-9 19-12z" fill="url(#airtelGradient)"/>
  <text x="95" y="48" font-family="Arial, sans-serif" font-size="32" font-weight="bold" fill="#d90429">airtel</text>
</svg>
